<?xml version="1.0" encoding="utf-8"?>
<!-- Generator: Adobe Illustrator 16.0.0, SVG Export Plug-In . SVG Version: 6.00 Build 0)  -->
<!DOCTYPE svg PUBLIC "-//W3C//DTD SVG 1.1//EN" "http://www.w3.org/Graphics/SVG/1.1/DTD/svg11.dtd">
<svg version="1.1" xmlns="http://www.w3.org/2000/svg" xmlns:xlink="http://www.w3.org/1999/xlink" x="0px" y="0px" width="826px"
	 height="166.762px" viewBox="0 0 826 166.762" enable-background="new 0 0 826 166.762" xml:space="preserve">
<g id="Livre_Bonne_Nuit">
	<text transform="matrix(0.9574 0 0 1 0 121.9014)" fill="#1F5468" font-family="'metafors-Regular'" font-size="139.3158">Livre Bonne Nuit</text>
</g>
<g id="lune">
	<path id="interieur_lune" fill="#FFFCC8" d="M768.25,86.244c-1,3.625-12.5,30.046-35.5,35.546s-55.144-12.171-59.519-40.546
		s4.227-50.75,36.019-61.25c0,0,6.25-1.625,2.625,2c-2,1.5-24.728,15.386-19.125,43c5.25,25.875,20.625,30.875,33.875,33.75
		s28.702-2.712,33.625-9.625C766.125,80.869,769.25,82.619,768.25,86.244z"/>
	<path id="contour_lune_1_" fill="#FFE60B" d="M769.666,75.619c-3.667-0.333-2.166,3-13,13.167s-26.166,8-35.833,4.666
		s-25.167-12.833-25.333-37.5s18.5-32.833,22.333-35.833s-1.167-3.5-1.167-3.5c-31,3.5-51,31.5-48.166,57.667s15,41.833,41,49
		s45-10,52.666-21S773.333,75.952,769.666,75.619z M767.25,86.869c-1,3.625-11.75,28.375-34.75,33.875s-53.75-11.125-58.125-39.5
		s3.166-49.625,34.958-60.125c0,0,2.542-0.75,1,1.167c-2,1.5-24.166,15.167-18.833,42.833s21.625,32.125,34.875,35
		s28.375-3.375,34.25-9.5S768.25,83.244,767.25,86.869z"/>
</g>
<g id="etoile">
	<g id="interieur">
		<polygon fill="#F4FCFF" points="785.25,74.244 790,66.744 791.468,75.332 798.25,78.619 791.75,82.369 792.625,90.619 
			786.375,84.619 778.5,88.244 782.25,80.119 776.875,73.744 		"/>
		<polygon fill="#F4FCFF" points="786.842,105.764 788.855,101.369 790.5,106.119 795.25,106.619 791.625,109.619 792.25,114.244 
			788.375,111.494 784.756,113.584 786,109.369 782.461,106.119 		"/>
		<polygon fill="#F4FCFF" points="813.875,96.744 808.75,100.119 814.25,100.619 815.375,106.244 818.5,100.869 824,101.619 
			819.919,97.076 822.5,92.369 817.303,94.619 813.125,91.119 		"/>
		<polygon fill="#F4FCFF" points="658.25,99.869 659.625,92.244 663.25,98.619 669.88,99.339 665.875,103.994 669.125,110.369 
			662.265,107.929 656.125,112.244 657.375,104.994 651.125,101.619 		"/>
		<polygon fill="#F4FCFF" points="643.75,66.619 641.625,61.369 646.375,63.994 650.037,60.637 649.25,65.744 653.965,68.329 
			648.187,69.744 647.375,75.119 645,70.396 640.25,70.801 		"/>
		<polygon fill="#F4FCFF" points="623.226,87.534 622.375,82.744 626.375,85.119 631.625,83.682 629.625,88.244 633.25,92.119 
			628.144,91.813 625.875,96.244 624.543,91.711 619.281,90.869 		"/>
	</g>
	<g id="contour">
		
			<polygon fill="none" stroke="#A5DBEE" stroke-width="2" stroke-linecap="round" stroke-linejoin="round" stroke-miterlimit="10" points="
			785.25,74.244 790,66.744 791.468,75.332 798.25,78.619 791.75,82.369 792.625,90.619 786.375,84.619 778.5,88.244 782.25,80.119 
			776.875,73.744 		"/>
		
			<polygon fill="none" stroke="#A5DBEE" stroke-width="2" stroke-linecap="round" stroke-linejoin="round" stroke-miterlimit="10" points="
			786.842,105.764 788.855,101.369 790.5,106.119 795.25,106.619 791.625,109.619 792.25,114.244 788.375,111.494 784.756,113.584 
			786,109.369 782.461,106.119 		"/>
		
			<polygon fill="none" stroke="#A5DBEE" stroke-width="2" stroke-linecap="round" stroke-linejoin="round" stroke-miterlimit="10" points="
			813.875,96.744 808.75,100.119 814.25,100.619 815.375,106.244 818.5,100.869 824,101.619 819.919,97.076 822.5,92.369 
			817.303,94.619 813.125,91.119 		"/>
		
			<polygon fill="none" stroke="#A5DBEE" stroke-width="2" stroke-linecap="round" stroke-linejoin="round" stroke-miterlimit="10" points="
			658.25,99.869 659.625,92.244 663.25,98.619 669.88,99.339 665.875,103.994 669.125,110.369 662.265,107.929 656.125,112.244 
			657.375,104.994 651.125,101.619 		"/>
		
			<polygon fill="none" stroke="#A5DBEE" stroke-width="2" stroke-linecap="round" stroke-linejoin="round" stroke-miterlimit="10" points="
			643.75,66.619 641.625,61.369 646.375,63.994 650.037,60.637 649.25,65.744 653.965,68.329 648.187,69.744 647.375,75.119 
			645,70.396 640.25,70.801 		"/>
		
			<polygon fill="none" stroke="#A5DBEE" stroke-width="2" stroke-linecap="round" stroke-linejoin="round" stroke-miterlimit="10" points="
			623.226,87.534 622.375,82.744 626.375,85.119 631.625,83.682 629.625,88.244 633.25,92.119 628.144,91.813 625.875,96.244 
			624.543,91.711 619.281,90.869 		"/>
	</g>
</g>
</svg>
